<svg width="25" height="24" viewBox="0 0 25 24" fill="none" xmlns="http://www.w3.org/2000/svg">
<path d="M12.98 24C19.6074 24 24.98 18.6274 24.98 12C24.98 5.37258 19.6074 0 12.98 0C6.35256 0 0.97998 5.37258 0.97998 12C0.97998 18.6274 6.35256 24 12.98 24Z" fill="#FFDD67"/>
<path d="M6.98008 15.6C9.41013 15.6 11.3801 13.6301 11.3801 11.2C11.3801 8.77 9.41013 6.80005 6.98008 6.80005C4.55003 6.80005 2.58008 8.77 2.58008 11.2C2.58008 13.6301 4.55003 15.6 6.98008 15.6Z" fill="white"/>
<path d="M18.9801 15.6C21.4101 15.6 23.3801 13.6301 23.3801 11.2C23.3801 8.77 21.4101 6.80005 18.9801 6.80005C16.55 6.80005 14.5801 8.77 14.5801 11.2C14.5801 13.6301 16.55 15.6 18.9801 15.6Z" fill="white"/>
<path d="M14.5801 9.99999C13.8601 9.47999 12.1001 9.47999 11.3801 9.99999C10.9401 9.59999 11.0201 9.15999 10.5801 8.75999C11.8201 7.83999 13.9401 7.67999 15.3801 8.75999C14.9401 9.15999 15.0201 9.59999 14.5801 9.99999Z" fill="#494949"/>
<path d="M18.98 6C16.1 6 13.78 8.32 13.78 11.2C13.78 14.08 16.1 16.4 18.98 16.4C21.86 16.4 24.18 14.08 24.18 11.2C24.18 8.32 21.86 6 18.98 6ZM18.98 15.2C16.78 15.2 14.98 13.4 14.98 11.2C14.98 9 16.78 7.2 18.98 7.2C21.18 7.2 22.98 9 22.98 11.2C22.98 13.4 21.18 15.2 18.98 15.2ZM6.98003 6C4.10003 6 1.78003 8.32 1.78003 11.2C1.78003 14.08 4.10003 16.4 6.98003 16.4C9.86003 16.4 12.18 14.08 12.18 11.2C12.18 8.32 9.86003 6 6.98003 6ZM6.98003 15.2C4.78003 15.2 2.98003 13.4 2.98003 11.2C2.98003 9 4.78003 7.2 6.98003 7.2C9.18003 7.2 10.98 9 10.98 11.2C10.98 13.4 9.18003 15.2 6.98003 15.2Z" fill="#494949"/>
<path d="M8.18008 13.3999C9.06373 13.3999 9.78008 12.5045 9.78008 11.3999C9.78008 10.2953 9.06373 9.3999 8.18008 9.3999C7.29642 9.3999 6.58008 10.2953 6.58008 11.3999C6.58008 12.5045 7.29642 13.3999 8.18008 13.3999Z" fill="#664E27"/>
<path d="M17.7799 13.3999C18.6636 13.3999 19.3799 12.5045 19.3799 11.3999C19.3799 10.2953 18.6636 9.3999 17.7799 9.3999C16.8963 9.3999 16.1799 10.2953 16.1799 11.3999C16.1799 12.5045 16.8963 13.3999 17.7799 13.3999Z" fill="#664E27"/>
<path d="M10.8601 19.7197C13.1801 20.3197 15.6601 19.8797 17.6201 18.5197C18.1001 18.1597 17.1801 16.9197 16.7001 17.2397C15.4201 18.1597 13.3401 18.7597 11.2201 18.1997C10.7001 18.0797 10.2601 19.5597 10.8601 19.7197Z" fill="#664E27"/>
<path d="M21.46 5.47996C20.18 4.39996 18.46 3.91996 16.78 4.23996C16.54 4.27996 16.34 3.43996 16.62 3.35996C18.54 2.99996 20.54 3.55996 22.02 4.79996C22.26 4.99996 21.62 5.63996 21.46 5.47996ZM9.17996 4.15996C7.49996 3.87996 5.77996 4.31996 4.49996 5.39996C4.33996 5.55996 3.69996 4.91996 3.93996 4.71996C5.41996 3.43996 7.41996 2.91996 9.33996 3.27996C9.61996 3.35996 9.41996 4.19996 9.17996 4.15996Z" fill="#917524"/>
</svg>
