<svg width="24" height="24" viewBox="0 0 24 24" fill="none" xmlns="http://www.w3.org/2000/svg">
<g id="add_reaction">
<mask id="mask0_1817_19521" style="mask-type:alpha" maskUnits="userSpaceOnUse" x="0" y="0" width="24" height="24">
<rect id="Bounding box" width="24" height="24" fill="#D9D9D9"/>
</mask>
<g mask="url(#mask0_1817_19521)">
<path id="add_reaction_2" d="M12 22.8C10.5 22.8 9.09562 22.5167 7.78695 21.9501C6.47895 21.3834 5.33762 20.6127 4.36295 19.6381C3.38762 18.6627 2.61662 17.5207 2.04995 16.212C1.48328 14.904 1.19995 13.5 1.19995 12C1.19995 10.5 1.48328 9.09172 2.04995 7.77505C2.61662 6.45838 3.38762 5.31272 4.36295 4.33805C5.33762 3.36272 6.47895 2.59572 7.78695 2.03705C9.09562 1.47905 10.5 1.20005 12 1.20005C12.7666 1.20005 13.5126 1.27505 14.238 1.42505C14.9626 1.57505 15.65 1.79172 16.3 2.07505C16.1166 2.35838 15.9666 2.65838 15.85 2.97505C15.7333 3.29172 15.675 3.63338 15.675 4.00005C15.675 4.13338 15.6833 4.26238 15.7 4.38705C15.7166 4.51238 15.7416 4.64172 15.775 4.77505C15.2083 4.47505 14.6083 4.24572 13.975 4.08705C13.3416 3.92905 12.6833 3.85005 12 3.85005C9.73328 3.85005 7.80828 4.64172 6.22495 6.22505C4.64162 7.80838 3.84995 9.73338 3.84995 12C3.84995 14.2667 4.64162 16.1917 6.22495 17.775C7.80828 19.3584 9.73328 20.15 12 20.15C14.2666 20.15 16.1916 19.3584 17.775 17.775C19.3583 16.1917 20.15 14.2667 20.15 12C20.15 11.4667 20.1 10.95 20 10.45C19.9 9.95005 19.7583 9.46671 19.575 9.00005C19.7916 9.10005 20.021 9.17905 20.263 9.23705C20.5043 9.29572 20.75 9.32505 21 9.32505C21.25 9.32505 21.4916 9.30005 21.725 9.25005C21.9583 9.20005 22.1833 9.12505 22.4 9.02505C22.5333 9.50838 22.6333 9.99605 22.7 10.488C22.7666 10.9794 22.7999 11.4834 22.7999 12C22.7999 13.5 22.5206 14.904 21.962 16.212C21.4039 17.5207 20.6376 18.6627 19.663 19.6381C18.6876 20.6127 17.5416 21.3834 16.225 21.9501C14.9083 22.5167 13.5 22.8 12 22.8ZM15.7 11.2C16.2 11.2 16.6166 11.0334 16.95 10.7C17.2833 10.3667 17.45 9.95005 17.45 9.45005C17.45 8.95005 17.2833 8.53338 16.95 8.20005C16.6166 7.86671 16.2 7.70005 15.7 7.70005C15.2 7.70005 14.7833 7.86671 14.45 8.20005C14.1166 8.53338 13.95 8.95005 13.95 9.45005C13.95 9.95005 14.1166 10.3667 14.45 10.7C14.7833 11.0334 15.2 11.2 15.7 11.2ZM8.29995 11.2C8.79995 11.2 9.21662 11.0334 9.54995 10.7C9.88328 10.3667 10.05 9.95005 10.05 9.45005C10.05 8.95005 9.88328 8.53338 9.54995 8.20005C9.21662 7.86671 8.79995 7.70005 8.29995 7.70005C7.79995 7.70005 7.38329 7.86671 7.04995 8.20005C6.71662 8.53338 6.54995 8.95005 6.54995 9.45005C6.54995 9.95005 6.71662 10.3667 7.04995 10.7C7.38329 11.0334 7.79995 11.2 8.29995 11.2ZM12 18C13.3833 18 14.5666 17.6124 15.55 16.837C16.5333 16.0624 17.2166 15.1334 17.6 14.05H6.39995C6.78328 15.1334 7.46662 16.0624 8.44995 16.837C9.43328 17.6124 10.6166 18 12 18ZM19.6749 5.32505H19C18.6333 5.32505 18.3206 5.19571 18.062 4.93705C17.804 4.67905 17.6749 4.36672 17.6749 4.00005C17.6749 3.63338 17.804 3.32072 18.062 3.06205C18.3206 2.80405 18.6333 2.67505 19 2.67505H19.6749V2.00005C19.6749 1.63338 19.804 1.32072 20.062 1.06205C20.3206 0.804049 20.6333 0.675049 21 0.675049C21.3666 0.675049 21.6793 0.804049 21.938 1.06205C22.1959 1.32072 22.325 1.63338 22.325 2.00005V2.67505H23C23.3666 2.67505 23.6793 2.80405 23.938 3.06205C24.1959 3.32072 24.325 3.63338 24.325 4.00005C24.325 4.36672 24.1959 4.67905 23.938 4.93705C23.6793 5.19571 23.3666 5.32505 23 5.32505H22.325V6.00005C22.325 6.36672 22.1959 6.67938 21.938 6.93805C21.6793 7.19605 21.3666 7.32505 21 7.32505C20.6333 7.32505 20.3206 7.19605 20.062 6.93805C19.804 6.67938 19.6749 6.36672 19.6749 6.00005V5.32505Z" fill="#535AF1"/>
</g>
</g>
</svg>
