<svg width="15" height="11" viewBox="0 0 15 11" fill="none" xmlns="http://www.w3.org/2000/svg">
<path id="expand_more" d="M7.42297 10.0625C7.21463 10.0625 7.0113 10.0208 6.81297 9.9375C6.61547 9.85417 6.43338 9.72917 6.26672 9.5625L0.454216 3.75C0.141716 3.4375 -0.00953489 3.04667 0.000465115 2.5775C0.0112984 2.10917 0.172965 1.71875 0.485465 1.40625C0.797965 1.09375 1.1888 0.9375 1.65797 0.9375C2.1263 0.9375 2.51672 1.09375 2.82922 1.40625L7.42297 6.03125L12.048 1.40625C12.3605 1.09375 12.7509 0.9375 13.2192 0.9375C13.6884 0.9375 14.0792 1.09375 14.3917 1.40625C14.7042 1.71875 14.8605 2.10917 14.8605 2.5775C14.8605 3.04667 14.7042 3.4375 14.3917 3.75L8.57922 9.5625C8.41255 9.72917 8.23046 9.85417 8.03296 9.9375C7.83463 10.0208 7.6313 10.0625 7.42297 10.0625Z" fill="#535AF1"/>
</svg>
