<svg width="24" height="24" viewBox="0 0 24 24" fill="none" xmlns="http://www.w3.org/2000/svg">
<g id="more_vert">
<mask id="mask0_1817_17655" style="mask-type:alpha" maskUnits="userSpaceOnUse" x="0" y="0" width="24" height="24">
<rect id="Bounding box" width="24" height="24" fill="#D9D9D9"/>
</mask>
<g mask="url(#mask0_1817_17655)">
<path id="more_vert_2" d="M11.9959 21.25C11.3486 21.25 10.7957 21.0195 10.3374 20.5585C9.87907 20.0975 9.6499 19.5434 9.6499 18.896C9.6499 18.2487 9.88039 17.6958 10.3414 17.2375C10.8024 16.7792 11.3565 16.55 12.0039 16.55C12.6512 16.55 13.2041 16.7805 13.6624 17.2415C14.1207 17.7025 14.3499 18.2566 14.3499 18.904C14.3499 19.5513 14.1194 20.1042 13.6584 20.5625C13.1974 21.0208 12.6433 21.25 11.9959 21.25ZM11.9959 14.35C11.3486 14.35 10.7957 14.1195 10.3374 13.6585C9.87907 13.1975 9.6499 12.6434 9.6499 11.996C9.6499 11.3487 9.88039 10.7958 10.3414 10.3375C10.8024 9.87917 11.3565 9.65 12.0039 9.65C12.6512 9.65 13.2041 9.88049 13.6624 10.3415C14.1207 10.8025 14.3499 11.3566 14.3499 12.004C14.3499 12.6513 14.1194 13.2042 13.6584 13.6625C13.1974 14.1208 12.6433 14.35 11.9959 14.35ZM11.9959 7.45C11.3486 7.45 10.7957 7.21951 10.3374 6.75853C9.87907 6.29753 9.6499 5.74336 9.6499 5.09603C9.6499 4.44868 9.88039 3.89583 10.3414 3.4375C10.8024 2.97917 11.3565 2.75 12.0039 2.75C12.6512 2.75 13.2041 2.98049 13.6624 3.44147C14.1207 3.90247 14.3499 4.45664 14.3499 5.10398C14.3499 5.75133 14.1194 6.30417 13.6584 6.7625C13.1974 7.22083 12.6433 7.45 11.9959 7.45Z" fill="#535AF1"/>
</g>
</g>
</svg>
