<svg width="65" height="34" viewBox="0 0 65 34" fill="none" xmlns="http://www.w3.org/2000/svg">
<rect x="1.47217" y="0.5" width="62.9601" height="33" rx="16.5" fill="white"/>
<path d="M14.5263 23.6489C16.1236 22.0516 16.2834 21.6523 17.2817 22.6506C18.28 23.6489 17.8807 23.7687 16.2834 25.406C15.0854 26.604 13.5679 26.3644 13.5679 26.3644C13.5679 26.3644 13.3283 24.8469 14.5263 23.6489Z" fill="#FF9D27"/>
<path d="M17.5613 25.2863C18.2002 23.6091 18.3999 23.4094 17.4814 22.8902C16.5629 22.3711 16.5629 22.7305 15.9639 24.4077C15.4847 25.6457 16.0438 26.7638 16.0438 26.7638C16.0438 26.7638 17.122 26.5641 17.5613 25.2863Z" fill="#FF9D27"/>
<path d="M16.6427 23.7287C17.0021 22.8102 17.0021 22.6106 17.4813 22.8901C18.0004 23.1696 17.8806 23.2894 17.5212 24.2079C17.2816 24.8868 16.6826 25.0465 16.6826 25.0465C16.6826 25.0465 16.4031 24.4475 16.6427 23.7287Z" fill="#FDF516"/>
<path d="M17.002 22.4509C16.4829 21.5324 16.2832 21.7321 14.606 22.371C13.3681 22.8502 13.1285 23.8885 13.1285 23.8885C13.1285 23.8885 14.2466 24.4475 15.4846 23.9683C17.1618 23.3294 17.5212 23.3294 17.002 22.4509Z" fill="#FF9D27"/>
<path d="M16.1635 23.2895C17.082 22.9301 17.2816 22.9301 17.0021 22.4509C16.7226 21.9318 16.6028 22.0516 15.6843 22.411C15.0054 22.6506 14.8457 23.2496 14.8457 23.2496C14.8457 23.2496 15.4846 23.5291 16.1635 23.2895Z" fill="#FDF516"/>
<path d="M15.7243 23.2097C16.6028 22.3311 16.6827 22.0915 17.2417 22.6506C17.8008 23.2097 17.5612 23.2895 16.6827 24.1681C16.0038 24.8469 15.1652 24.6872 15.1652 24.6872C15.1652 24.6872 15.0853 23.8885 15.7243 23.2097Z" fill="#FDF516"/>
<path d="M17.5612 19.3761C15.0853 15.223 10.9722 16.9401 10.9722 16.9401C10.9722 16.9401 16.8424 11.0699 20.7958 15.0233L17.5612 19.3761Z" fill="#3BAACF"/>
<path d="M19.478 16.3012L20.7559 15.0233C16.8424 11.0699 10.9722 16.9401 10.9722 16.9401C10.9722 16.9401 16.1236 13.2662 19.478 16.3012Z" fill="#428BC1"/>
<path d="M20.5562 22.3711C24.7092 24.847 22.9921 28.9601 22.9921 28.9601C22.9921 28.9601 28.8623 23.0899 24.9089 19.1365L20.5562 22.3711Z" fill="#3BAACF"/>
<path d="M23.631 20.4543L24.9089 19.1764C28.8623 23.1298 22.9921 29 22.9921 29C22.9921 29 26.6659 23.8087 23.631 20.4543Z" fill="#428BC1"/>
<path d="M29.6612 16.5407C24.989 21.173 19.8375 23.6888 18.0405 21.8918C16.2435 20.0948 18.7593 14.9434 23.3916 10.2712C28.8226 4.84022 34.8525 5.07982 34.8525 5.07982C34.8525 5.07982 35.0522 11.1098 29.6612 16.5407Z" fill="#C5D0D8"/>
<path d="M28.4631 15.223C23.8308 19.8552 19.1985 22.8902 18.1203 21.812C17.0421 20.7338 20.077 16.1015 24.7093 11.4692C30.1403 6.03827 34.9323 5 34.9323 5C34.9323 5 33.894 9.79201 28.4631 15.223Z" fill="#DAE3EA"/>
<path d="M19.8774 23.1697C19.6777 23.3694 19.3582 23.3694 19.1586 23.1697L16.7625 20.7737C16.5629 20.574 16.5629 20.2146 16.7625 20.0149L17.4813 19.2961L20.5962 22.411L19.8774 23.1697Z" fill="#C94747"/>
<path d="M19.1984 22.451C18.9987 22.6506 18.7591 22.7305 18.6393 22.6107L17.2816 21.253C17.1618 21.1332 17.2416 20.8936 17.4413 20.6939L18.1601 19.9751L19.9172 21.7322L19.1984 22.451Z" fill="#F15744"/>
<path d="M18.5197 23.4493C18.3999 23.5691 18.1203 23.5691 18.0005 23.4493L16.4431 21.8919C16.3233 21.7721 16.3633 21.5325 16.4831 21.4127L16.9623 20.9335L18.9989 22.9701L18.5197 23.4493Z" fill="#3E4347"/>
<path d="M18.2 23.1298C18.0802 23.2496 17.8406 23.2895 17.7608 23.2097L16.6826 22.1315C16.6027 22.0516 16.6426 21.8519 16.8024 21.7321L17.2816 21.2529L18.6792 22.6506L18.2 23.1298Z" fill="#62727A"/>
<path d="M34.8523 5.07986C34.8523 5.07986 32.6959 4.99999 29.7808 6.11813L33.814 10.1514C34.9322 7.23627 34.8523 5.07986 34.8523 5.07986Z" fill="#C94747"/>
<path d="M34.8524 5.07983C34.8524 5.07983 33.1352 5.43924 30.5396 6.91677L33.0154 9.39265C34.493 6.79697 34.8524 5.07983 34.8524 5.07983Z" fill="#F15744"/>
<path d="M27.5445 14.3843C28.6473 14.3843 29.5412 13.4904 29.5412 12.3877C29.5412 11.2849 28.6473 10.391 27.5445 10.391C26.4418 10.391 25.5479 11.2849 25.5479 12.3877C25.5479 13.4904 26.4418 14.3843 27.5445 14.3843Z" fill="#EDF4F9"/>
<path d="M27.5444 13.7056C28.2722 13.7056 28.8622 13.1156 28.8622 12.3877C28.8622 11.6599 28.2722 11.0699 27.5444 11.0699C26.8166 11.0699 26.2266 11.6599 26.2266 12.3877C26.2266 13.1156 26.8166 13.7056 27.5444 13.7056Z" fill="#3BAACF"/>
<path d="M23.5512 18.3776C24.6539 18.3776 25.5478 17.4837 25.5478 16.3809C25.5478 15.2782 24.6539 14.3843 23.5512 14.3843C22.4484 14.3843 21.5545 15.2782 21.5545 16.3809C21.5545 17.4837 22.4484 18.3776 23.5512 18.3776Z" fill="#EDF4F9"/>
<path d="M23.5512 17.6988C24.279 17.6988 24.869 17.1088 24.869 16.381C24.869 15.6532 24.279 15.0632 23.5512 15.0632C22.8234 15.0632 22.2334 15.6532 22.2334 16.381C22.2334 17.1088 22.8234 17.6988 23.5512 17.6988Z" fill="#3BAACF"/>
<path d="M29.7009 6.95675C29.5811 7.07655 29.3415 7.07655 29.2217 6.95675C29.1019 6.83695 29.1019 6.59735 29.2217 6.47755C29.3415 6.35775 29.5811 6.35775 29.7009 6.47755C29.8207 6.59735 29.8207 6.83695 29.7009 6.95675Z" fill="white"/>
<path d="M30.3798 7.9551C30.5563 7.9551 30.6993 7.81207 30.6993 7.63563C30.6993 7.45919 30.5563 7.31616 30.3798 7.31616C30.2034 7.31616 30.0604 7.45919 30.0604 7.63563C30.0604 7.81207 30.2034 7.9551 30.3798 7.9551Z" fill="white"/>
<path d="M31.3383 8.91347C31.5148 8.91347 31.6578 8.77044 31.6578 8.594C31.6578 8.41757 31.5148 8.27454 31.3383 8.27454C31.1619 8.27454 31.0189 8.41757 31.0189 8.594C31.0189 8.77044 31.1619 8.91347 31.3383 8.91347Z" fill="white"/>
<path d="M32.2567 9.87197C32.4332 9.87197 32.5762 9.72894 32.5762 9.5525C32.5762 9.37606 32.4332 9.23303 32.2567 9.23303C32.0803 9.23303 31.9373 9.37606 31.9373 9.5525C31.9373 9.72894 32.0803 9.87197 32.2567 9.87197Z" fill="white"/>
<path d="M33.215 10.7904C33.3915 10.7904 33.5345 10.6474 33.5345 10.471C33.5345 10.2945 33.3915 10.1515 33.215 10.1515C33.0386 10.1515 32.8956 10.2945 32.8956 10.471C32.8956 10.6474 33.0386 10.7904 33.215 10.7904Z" fill="white"/>
<path d="M46.9963 22C46.7616 22 46.5856 21.9467 46.4683 21.84C46.3616 21.7227 46.3083 21.568 46.3083 21.376C46.3083 21.2587 46.3349 21.1467 46.3883 21.04C46.4523 20.9227 46.5376 20.8053 46.6443 20.688L50.2283 16.848C50.7723 16.2613 51.1616 15.7227 51.3963 15.232C51.6416 14.7307 51.7643 14.224 51.7643 13.712C51.7643 13.072 51.5669 12.5867 51.1723 12.256C50.7883 11.9147 50.2229 11.744 49.4763 11.744C48.9963 11.744 48.5429 11.8187 48.1163 11.968C47.6896 12.1173 47.2789 12.3467 46.8843 12.656C46.7456 12.7627 46.6176 12.8107 46.5003 12.8C46.3936 12.7893 46.2976 12.7467 46.2123 12.672C46.1269 12.5973 46.0683 12.5013 46.0363 12.384C46.0043 12.2667 46.0043 12.1493 46.0363 12.032C46.0789 11.9147 46.1643 11.808 46.2923 11.712C46.7083 11.3707 47.2096 11.0987 47.7963 10.896C48.3829 10.6827 48.9803 10.576 49.5883 10.576C50.3456 10.576 50.9856 10.6933 51.5083 10.928C52.0309 11.1627 52.4256 11.5093 52.6923 11.968C52.9589 12.416 53.0923 12.9653 53.0923 13.616C53.0923 14.064 53.0176 14.5067 52.8683 14.944C52.7296 15.3707 52.5109 15.808 52.2123 16.256C51.9243 16.704 51.5456 17.168 51.0763 17.648L47.6683 21.248V20.88H53.0603C53.2629 20.88 53.4123 20.928 53.5083 21.024C53.6149 21.1093 53.6683 21.2427 53.6683 21.424C53.6683 21.616 53.6149 21.76 53.5083 21.856C53.4123 21.952 53.2629 22 53.0603 22H46.9963Z" fill="black"/>
<rect x="1.47217" y="0.5" width="62.9601" height="33" rx="16.5" stroke="#ADB0D9"/>
</svg>
