<svg width="25" height="24" viewBox="0 0 25 24" fill="none" xmlns="http://www.w3.org/2000/svg">
<path d="M4.5263 18.6489C6.12364 17.0516 6.28337 16.6523 7.28171 17.6506C8.28005 18.6489 7.88071 18.7687 6.28337 20.406C5.08537 21.604 3.5679 21.3644 3.5679 21.3644C3.5679 21.3644 3.3283 19.8469 4.5263 18.6489Z" fill="#FF9D27"/>
<path d="M7.56125 20.2863C8.20019 18.6091 8.39985 18.4094 7.48138 17.8902C6.56291 17.3711 6.56291 17.7305 5.96391 19.4077C5.48471 20.6457 6.04378 21.7638 6.04378 21.7638C6.04378 21.7638 7.12198 21.5641 7.56125 20.2863Z" fill="#FF9D27"/>
<path d="M6.64269 18.7287C7.00209 17.8102 7.00209 17.6106 7.48129 17.8901C8.00043 18.1696 7.88063 18.2894 7.52123 19.2079C7.28163 19.8868 6.68263 20.0465 6.68263 20.0465C6.68263 20.0465 6.40309 19.4475 6.64269 18.7287Z" fill="#FDF516"/>
<path d="M7.00202 17.4509C6.48289 16.5324 6.28322 16.7321 4.60602 17.371C3.36808 17.8502 3.12848 18.8885 3.12848 18.8885C3.12848 18.8885 4.24662 19.4475 5.48455 18.9683C7.16176 18.3294 7.52116 18.3294 7.00202 17.4509Z" fill="#FF9D27"/>
<path d="M6.16351 18.2895C7.08198 17.9301 7.28164 17.9301 7.00211 17.4509C6.72258 16.9318 6.60277 17.0516 5.68431 17.411C5.00544 17.6506 4.8457 18.2496 4.8457 18.2496C4.8457 18.2496 5.48464 18.5291 6.16351 18.2895Z" fill="#FDF516"/>
<path d="M5.72425 18.2097C6.60279 17.3311 6.68265 17.0915 7.24172 17.6506C7.80079 18.2097 7.56119 18.2895 6.68265 19.1681C6.00378 19.8469 5.16518 19.6872 5.16518 19.6872C5.16518 19.6872 5.08531 18.8885 5.72425 18.2097Z" fill="#FDF516"/>
<path d="M7.56119 14.3761C5.08531 10.223 0.972168 11.9401 0.972168 11.9401C0.972168 11.9401 6.84238 6.06991 10.7958 10.0233L7.56119 14.3761Z" fill="#3BAACF"/>
<path d="M9.47799 11.3012L10.7559 10.0233C6.84238 6.0699 0.972168 11.9401 0.972168 11.9401C0.972168 11.9401 6.12358 8.26624 9.47799 11.3012Z" fill="#428BC1"/>
<path d="M10.5562 17.3711C14.7092 19.847 12.9921 23.9601 12.9921 23.9601C12.9921 23.9601 18.8623 18.0899 14.9089 14.1365L10.5562 17.3711Z" fill="#3BAACF"/>
<path d="M13.631 15.4543L14.9089 14.1764C18.8623 18.1298 12.9921 24 12.9921 24C12.9921 24 16.6659 18.8087 13.631 15.4543Z" fill="#428BC1"/>
<path d="M19.6612 11.5407C14.989 16.173 9.83754 18.6888 8.04053 16.8918C6.24353 15.0948 8.75933 9.94338 13.3916 5.27117C18.8226 -0.159779 24.8525 0.0798222 24.8525 0.0798222C24.8525 0.0798222 25.0522 6.10977 19.6612 11.5407Z" fill="#C5D0D8"/>
<path d="M18.4631 10.223C13.8308 14.8552 9.1985 17.8902 8.12029 16.812C7.04209 15.7338 10.077 11.1015 14.7093 6.46922C20.1403 1.03827 24.9323 0 24.9323 0C24.9323 0 23.894 4.79201 18.4631 10.223Z" fill="#DAE3EA"/>
<path d="M9.87735 18.1697C9.67768 18.3694 9.35822 18.3694 9.15855 18.1697L6.76254 15.7737C6.56288 15.574 6.56288 15.2146 6.76254 15.0149L7.48135 14.2961L10.5962 17.411L9.87735 18.1697Z" fill="#C94747"/>
<path d="M9.19837 17.451C8.99871 17.6506 8.75911 17.7305 8.63931 17.6107L7.28157 16.253C7.16177 16.1332 7.24164 15.8936 7.4413 15.6939L8.1601 14.9751L9.91718 16.7322L9.19837 17.451Z" fill="#F15744"/>
<path d="M8.51966 18.4493C8.39986 18.5691 8.12033 18.5691 8.00053 18.4493L6.44312 16.8919C6.32332 16.7721 6.36326 16.5325 6.48306 16.4127L6.96226 15.9335L8.99886 17.9701L8.51966 18.4493Z" fill="#3E4347"/>
<path d="M8.20004 18.1298C8.08024 18.2496 7.84064 18.2895 7.76078 18.2097L6.68257 17.1315C6.60271 17.0516 6.64264 16.8519 6.80237 16.7321L7.28157 16.2529L8.67924 17.6506L8.20004 18.1298Z" fill="#62727A"/>
<path d="M24.8523 0.0798612C24.8523 0.0798612 22.6959 -5.63264e-06 19.7808 1.11813L23.814 5.15141C24.9322 2.23627 24.8523 0.0798612 24.8523 0.0798612Z" fill="#C94747"/>
<path d="M24.8524 0.079834C24.8524 0.079834 23.1352 0.439235 20.5396 1.91677L23.0154 4.39265C24.493 1.79697 24.8524 0.079834 24.8524 0.079834Z" fill="#F15744"/>
<path d="M17.5445 9.38434C18.6473 9.38434 19.5412 8.4904 19.5412 7.38766C19.5412 6.28493 18.6473 5.39099 17.5445 5.39099C16.4418 5.39099 15.5479 6.28493 15.5479 7.38766C15.5479 8.4904 16.4418 9.38434 17.5445 9.38434Z" fill="#EDF4F9"/>
<path d="M17.5444 8.70555C18.2722 8.70555 18.8622 8.11555 18.8622 7.38775C18.8622 6.65995 18.2722 6.06995 17.5444 6.06995C16.8166 6.06995 16.2266 6.65995 16.2266 7.38775C16.2266 8.11555 16.8166 8.70555 17.5444 8.70555Z" fill="#3BAACF"/>
<path d="M13.5512 13.3776C14.6539 13.3776 15.5478 12.4837 15.5478 11.3809C15.5478 10.2782 14.6539 9.38428 13.5512 9.38428C12.4484 9.38428 11.5545 10.2782 11.5545 11.3809C11.5545 12.4837 12.4484 13.3776 13.5512 13.3776Z" fill="#EDF4F9"/>
<path d="M13.5512 12.6988C14.279 12.6988 14.869 12.1088 14.869 11.381C14.869 10.6532 14.279 10.0632 13.5512 10.0632C12.8234 10.0632 12.2334 10.6532 12.2334 11.381C12.2334 12.1088 12.8234 12.6988 13.5512 12.6988Z" fill="#3BAACF"/>
<path d="M19.7009 1.95675C19.5811 2.07655 19.3415 2.07655 19.2217 1.95675C19.1019 1.83695 19.1019 1.59735 19.2217 1.47755C19.3415 1.35775 19.5811 1.35775 19.7009 1.47755C19.8207 1.59735 19.8207 1.83695 19.7009 1.95675Z" fill="white"/>
<path d="M20.3798 2.9551C20.5563 2.9551 20.6993 2.81207 20.6993 2.63563C20.6993 2.45919 20.5563 2.31616 20.3798 2.31616C20.2034 2.31616 20.0604 2.45919 20.0604 2.63563C20.0604 2.81207 20.2034 2.9551 20.3798 2.9551Z" fill="white"/>
<path d="M21.3383 3.91347C21.5148 3.91347 21.6578 3.77044 21.6578 3.594C21.6578 3.41757 21.5148 3.27454 21.3383 3.27454C21.1619 3.27454 21.0189 3.41757 21.0189 3.594C21.0189 3.77044 21.1619 3.91347 21.3383 3.91347Z" fill="white"/>
<path d="M22.2567 4.87197C22.4332 4.87197 22.5762 4.72894 22.5762 4.5525C22.5762 4.37606 22.4332 4.23303 22.2567 4.23303C22.0803 4.23303 21.9373 4.37606 21.9373 4.5525C21.9373 4.72894 22.0803 4.87197 22.2567 4.87197Z" fill="white"/>
<path d="M23.215 5.79042C23.3915 5.79042 23.5345 5.64739 23.5345 5.47096C23.5345 5.29452 23.3915 5.15149 23.215 5.15149C23.0386 5.15149 22.8956 5.29452 22.8956 5.47096C22.8956 5.64739 23.0386 5.79042 23.215 5.79042Z" fill="white"/>
</svg>
