<svg width="24" height="24" viewBox="0 0 24 24" fill="none" xmlns="http://www.w3.org/2000/svg">
<g id="sentiment_satisfied">
<mask id="mask0_516_7028" style="mask-type:alpha" maskUnits="userSpaceOnUse" x="0" y="0" width="24" height="24">
<rect id="Bounding box" width="24" height="24" fill="#D9D9D9"/>
</mask>
<g mask="url(#mask0_516_7028)">
<path id="sentiment_satisfied_2" d="M15.7 11.2002C16.2 11.2002 16.6166 11.0335 16.95 10.7002C17.2833 10.3669 17.45 9.9502 17.45 9.4502C17.45 8.9502 17.2833 8.53353 16.95 8.2002C16.6166 7.86686 16.2 7.7002 15.7 7.7002C15.2 7.7002 14.7833 7.86686 14.45 8.2002C14.1166 8.53353 13.95 8.9502 13.95 9.4502C13.95 9.9502 14.1166 10.3669 14.45 10.7002C14.7833 11.0335 15.2 11.2002 15.7 11.2002ZM8.29995 11.2002C8.79995 11.2002 9.21662 11.0335 9.54995 10.7002C9.88328 10.3669 10.05 9.9502 10.05 9.4502C10.05 8.9502 9.88328 8.53353 9.54995 8.2002C9.21662 7.86686 8.79995 7.7002 8.29995 7.7002C7.79995 7.7002 7.38329 7.86686 7.04995 8.2002C6.71662 8.53353 6.54995 8.9502 6.54995 9.4502C6.54995 9.9502 6.71662 10.3669 7.04995 10.7002C7.38329 11.0335 7.79995 11.2002 8.29995 11.2002ZM12 18.0002C13.1 18.0002 14.071 17.7542 14.913 17.2622C15.7543 16.7709 16.4 16.1835 16.85 15.5002C17.0833 15.1335 17.1043 14.8002 16.913 14.5002C16.721 14.2002 16.4583 14.0502 16.125 14.0502C15.875 14.0502 15.6793 14.1002 15.538 14.2002C15.396 14.3002 15.2583 14.4335 15.125 14.6002C14.7583 15.0502 14.3083 15.4129 13.775 15.6882C13.2416 15.9629 12.65 16.1002 12 16.1002C11.35 16.1002 10.7583 15.9629 10.225 15.6882C9.69162 15.4129 9.24162 15.0502 8.87495 14.6002C8.74162 14.4335 8.60428 14.3002 8.46295 14.2002C8.32095 14.1002 8.12495 14.0502 7.87495 14.0502C7.52495 14.0502 7.26262 14.2125 7.08795 14.5372C6.91262 14.8625 6.95828 15.2252 7.22495 15.6252C7.64162 16.2419 8.26662 16.7919 9.09995 17.2752C9.93328 17.7585 10.9 18.0002 12 18.0002ZM12 22.8002C10.5 22.8002 9.09562 22.5169 7.78695 21.9502C6.47895 21.3835 5.33762 20.6129 4.36295 19.6382C3.38762 18.6629 2.61662 17.5209 2.04995 16.2122C1.48328 14.9042 1.19995 13.5002 1.19995 12.0002C1.19995 10.5002 1.48328 9.09186 2.04995 7.7752C2.61662 6.45853 3.38762 5.31286 4.36295 4.3382C5.33762 3.36286 6.47895 2.59586 7.78695 2.0372C9.09562 1.4792 10.5 1.2002 12 1.2002C13.5 1.2002 14.9083 1.4792 16.225 2.0372C17.5416 2.59586 18.6876 3.36286 19.663 4.3382C20.6376 5.31286 21.4039 6.45853 21.962 7.7752C22.5206 9.09186 22.7999 10.5002 22.7999 12.0002C22.7999 13.5002 22.5206 14.9042 21.962 16.2122C21.4039 17.5209 20.6376 18.6629 19.663 19.6382C18.6876 20.6129 17.5416 21.3835 16.225 21.9502C14.9083 22.5169 13.5 22.8002 12 22.8002ZM12 20.1502C14.2666 20.1502 16.1916 19.3585 17.775 17.7752C19.3583 16.1919 20.15 14.2669 20.15 12.0002C20.15 9.73353 19.3583 7.80853 17.775 6.22519C16.1916 4.64186 14.2666 3.8502 12 3.8502C9.73328 3.8502 7.80828 4.64186 6.22495 6.22519C4.64162 7.80853 3.84995 9.73353 3.84995 12.0002C3.84995 14.2669 4.64162 16.1919 6.22495 17.7752C7.80828 19.3585 9.73328 20.1502 12 20.1502Z" fill="#535AF1"/>
</g>
</g>
</svg>
