<svg width="24" height="25" viewBox="0 0 24 25" fill="none" xmlns="http://www.w3.org/2000/svg">
<g id="tag">
<mask id="mask0_365_2339" style="mask-type:alpha" maskUnits="userSpaceOnUse" x="0" y="0" width="24" height="25">
<rect id="Bounding box" y="0.5" width="24" height="24" fill="#D9D9D9"/>
</mask>
<g mask="url(#mask0_365_2339)">
<path id="tag_2" d="M7.24999 20.5C6.93333 20.5 6.67499 20.375 6.47499 20.125C6.27499 19.875 6.21666 19.6 6.29999 19.3L6.99999 16.5H4.77499C4.44166 16.5 4.17499 16.371 3.97499 16.113C3.77499 15.8543 3.71666 15.5667 3.79999 15.25C3.84999 15.0167 3.96666 14.8333 4.14999 14.7C4.33333 14.5667 4.54166 14.5 4.77499 14.5H7.49999L8.49999 10.5H5.77499C5.44166 10.5 5.17499 10.371 4.97499 10.113C4.77499 9.85433 4.71666 9.56667 4.79999 9.25C4.84999 9.01667 4.96666 8.83333 5.14999 8.7C5.33333 8.56667 5.54166 8.5 5.77499 8.5H8.99999L9.82499 5.225C9.87499 5.00833 9.98333 4.83333 10.15 4.7C10.3167 4.56667 10.5167 4.5 10.75 4.5C11.0667 4.5 11.325 4.625 11.525 4.875C11.725 5.125 11.7833 5.4 11.7 5.7L11 8.5H15L15.825 5.225C15.875 5.00833 15.9833 4.83333 16.15 4.7C16.3167 4.56667 16.5167 4.5 16.75 4.5C17.0667 4.5 17.325 4.625 17.525 4.875C17.725 5.125 17.7833 5.4 17.7 5.7L17 8.5H19.225C19.5583 8.5 19.825 8.629 20.025 8.887C20.225 9.14567 20.2833 9.43333 20.2 9.75C20.15 9.98333 20.0333 10.1667 19.85 10.3C19.6667 10.4333 19.4583 10.5 19.225 10.5H16.5L15.5 14.5H18.225C18.5583 14.5 18.825 14.629 19.025 14.887C19.225 15.1457 19.2833 15.4333 19.2 15.75C19.15 15.9833 19.0333 16.1667 18.85 16.3C18.6667 16.4333 18.4583 16.5 18.225 16.5H15L14.175 19.775C14.125 19.9917 14.0167 20.1667 13.85 20.3C13.6833 20.4333 13.4833 20.5 13.25 20.5C12.9333 20.5 12.675 20.375 12.475 20.125C12.275 19.875 12.2167 19.6 12.3 19.3L13 16.5H8.99999L8.17499 19.775C8.12499 19.9917 8.01666 20.1667 7.84999 20.3C7.68333 20.4333 7.48333 20.5 7.24999 20.5ZM9.49999 14.5H13.5L14.5 10.5H10.5L9.49999 14.5Z" fill="#797EF3"/>
</g>
</g>
</svg>
